HIERARCHY
ROOT Hips
{
	OFFSET 0.000000 8.830580 0.000000
	CHANNELS 6 Xposition Yposition Zposition Zrotation Yrotation Xrotation 
	JOINT Spine
	{
		OFFSET 0.000000 0.010000 0.000000
		CHANNELS 3 Zrotation Yrotation Xrotation
		JOINT Spine1
		{
			OFFSET 0.000000 2.459130 0.000000
			CHANNELS 3 Zrotation Yrotation Xrotation
			JOINT Neck
			{
				OFFSET 0.000000 2.484630 0.000000
				CHANNELS 3 Zrotation Yrotation Xrotation
				JOINT Head_virtual
				{
					OFFSET 0.000000 0.000000 0.000000
					CHANNELS 3 Zrotation Yrotation Xrotation
					JOINT Head
					{
						OFFSET 0.000000 0.927525 0.000000
						CHANNELS 3 Zrotation Yrotation Xrotation
						End Site
						{
							OFFSET 0.000000 0.000000 0.000000
						}
					}
				}
				JOINT LeftUpArm_virtual
				{
					OFFSET 0.000000 0.000000 0.000000
					CHANNELS 3 Zrotation Yrotation Xrotation
					JOINT LeftUpArm
					{
						OFFSET 1.248820 0.000000 0.000000
						CHANNELS 3 Zrotation Yrotation Xrotation
						JOINT LeftForeArm
						{
							OFFSET 2.597580 0.000000 0.000000
							CHANNELS 3 Zrotation Yrotation Xrotation
							JOINT LeftHand
							{
								OFFSET 2.455420 0.000000 0.000000
								CHANNELS 3 Zrotation Yrotation Xrotation
								End Site
								{
									OFFSET 0.000000 0.000000 0.000000
								}
							}
						}
					}
				}
				JOINT RightUpArm_virtual
				{
					OFFSET -0.000000 -0.000000 -0.000000
					CHANNELS 3 Zrotation Yrotation Xrotation
					JOINT RightUpArm
					{
						OFFSET -1.248820 -0.000000 -0.000000
						CHANNELS 3 Zrotation Yrotation Xrotation
						JOINT RightForeArm
						{
							OFFSET -2.597580 -0.000000 -0.000000
							CHANNELS 3 Zrotation Yrotation Xrotation
							JOINT RightHand
							{
								OFFSET -2.455420 -0.000000 -0.000000
								CHANNELS 3 Zrotation Yrotation Xrotation
								End Site
								{
									OFFSET 0.000000 0.000000 0.000000
								}
							}
						}
					}
				}
			}
		}
	}
	JOINT LeftUpLeg
	{
		OFFSET 1.271939 0.000000 0.000000
		CHANNELS 3 Zrotation Yrotation Xrotation
		JOINT LeftLowLeg
		{
			OFFSET 0.000000 -4.342910 0.000000
			CHANNELS 3 Zrotation Yrotation Xrotation
			JOINT LeftFoot
			{
				OFFSET 0.000000 -4.487670 0.000000
				CHANNELS 3 Zrotation Yrotation Xrotation
				JOINT LeftToeBase
				{
					OFFSET 0.000000 0.000000 1.515070
					CHANNELS 3 Zrotation Yrotation Xrotation
					End Site
					{
						OFFSET 0.000000 0.000000 0.000000
					}
				}
			}
		}
	}
	JOINT RightUpLeg
	{
		OFFSET -1.271939 0.000000 0.000000
		CHANNELS 3 Zrotation Yrotation Xrotation
		JOINT RightLowLeg
		{
			OFFSET 0.000000 -4.342910 0.000000
			CHANNELS 3 Zrotation Yrotation Xrotation
			JOINT RightFoot
			{
				OFFSET 0.000000 -4.487670 0.000000
				CHANNELS 3 Zrotation Yrotation Xrotation
				JOINT RightToeBase
				{
					OFFSET 0.000000 0.000000 1.515070
					CHANNELS 3 Zrotation Yrotation Xrotation
					End Site
					{
						OFFSET 0.000000 0.000000 0.000000
					}
				}
			}
		}
	}
}
MOTION
Frames: 17
Frame Time: 0.041667
-17.485271 6.415308 39.180365 -175.317935 -8.574827 160.305897 10.888289 13.088873 1.798366 -6.921061 -15.103513 8.790732 0.000000 0.000000 0.000000 10.626931 -8.280051 5.542431 -17.317987 4.797006 -82.043529 -27.362600 -5.426100 10.156800 -37.600101 -36.981998 -16.722992 -180.000000 -32.373001 180.000000 12.839700 22.217400 51.278992 32.427200 0.018891 3.985950 38.694000 32.434101 -7.026920 -180.000000 39.929993 180.000000 -27.189600 1.567800 27.113199 4.490439 -15.181002 -80.037756 0.000000 0.000000 67.168900 -6.092863 7.950562 22.746349 0.000000 0.000000 -14.651130 8.082754 -5.074963 -59.000617 0.000000 0.000000 92.952103 10.315210 -11.911981 9.169996 0.000000 0.000000 -26.954700 
-17.487480 6.417028 39.167946 -175.469334 -8.573368 160.361039 10.685400 13.270456 1.543115 -7.245368 -14.936492 8.664741 0.000000 0.000000 0.000000 11.025759 -8.270570 5.821084 -17.135311 5.007098 -82.474675 -27.316401 -5.394360 10.232500 -37.272099 -36.946098 -16.757996 180.000000 -32.367996 -180.000000 13.430300 22.005501 51.572998 32.907501 0.043191 4.065410 38.225899 32.374298 -7.494940 180.000000 39.751999 180.000000 -27.169500 0.929306 26.992201 6.386403 -15.491558 -79.436114 0.000000 0.000000 68.900703 -6.536107 8.120987 22.466769 0.000000 0.000000 -14.516777 7.066961 -5.005858 -59.383295 0.000000 0.000000 93.499496 10.466803 -12.024334 8.874156 0.000000 0.000000 -26.759400 
-17.487800 6.419358 39.151585 -175.608358 -8.566536 160.432048 10.394421 13.476680 1.128898 -7.453574 -14.652869 8.727261 0.000000 0.000000 0.000000 11.475155 -8.374544 5.919312 -16.895468 5.236128 -82.769943 -27.276699 -5.478570 10.187100 -37.039799 -36.818600 -16.683990 180.000000 -32.319000 -180.000000 13.885800 21.967100 52.010986 33.127998 -0.051379 4.011260 38.270699 32.220798 -7.402020 180.000000 39.643005 -180.000000 -27.523199 0.923522 27.267599 7.846912 -15.678461 -78.701915 0.000000 0.000000 71.080101 -7.057436 8.188739 22.049532 0.000000 0.000000 -14.577299 6.242467 -5.100272 -59.763565 0.000000 0.000000 94.183197 9.512313 -12.559535 8.404979 0.000000 0.000000 -26.616500 
-17.486331 6.420720 39.133206 -175.638169 -8.487943 160.638160 10.144037 13.690481 0.598844 -7.631101 -14.335044 8.745377 0.000000 0.000000 0.000000 11.894315 -8.418897 5.977905 -16.594964 5.506905 -82.996849 -27.194401 -5.524640 10.174800 -36.933601 -36.809898 -16.584991 180.000000 -32.253998 -180.000000 14.223900 21.960800 52.571991 33.313099 -0.131378 3.988190 38.310398 32.050701 -7.279850 180.000000 39.442993 180.000000 -28.002100 0.477754 27.476801 9.090455 -15.734887 -78.016567 0.000000 0.000000 73.688698 -7.923382 8.148961 21.426362 0.000000 0.000000 -14.587165 5.832214 -5.406692 -60.224864 0.000000 0.000000 94.959602 7.757512 -13.570832 7.354810 0.000000 0.000000 -26.002300 
-17.484873 6.421903 39.112017 -175.679281 -8.463220 160.957980 9.710687 13.824197 -0.032950 -7.566540 -14.073617 8.650050 0.000000 0.000000 0.000000 12.232001 -8.470635 6.106610 -16.373967 5.659976 -83.304816 -27.266300 -5.488760 10.156500 -36.814800 -36.796700 -16.569000 -180.000000 -32.214996 180.000000 14.425700 21.945101 52.920013 33.391399 -0.120553 4.001590 38.336601 31.856001 -7.207510 180.000000 39.251007 180.000000 -28.049000 0.696704 27.391600 10.000256 -15.738283 -77.366051 0.000000 0.000000 76.689903 -8.954354 7.743070 20.755320 0.000000 0.000000 -14.505480 5.610633 -5.927405 -60.831499 0.000000 0.000000 96.073997 6.009384 -14.482136 5.824282 0.000000 0.000000 -25.480100 
-17.483337 6.422079 39.092674 -175.690559 -8.470159 161.520648 9.330332 14.009811 -0.658732 -7.558922 -13.833442 8.218845 0.000000 0.000000 0.000000 12.530409 -8.485654 6.289986 -16.042825 5.788110 -83.584545 -27.309799 -5.469100 9.955490 -36.949902 -36.552700 -16.220001 -180.000000 -32.175003 180.000000 14.646400 21.873800 53.010986 33.526402 -0.201401 3.988680 38.283501 31.639601 -7.160240 180.000000 38.912994 180.000000 -27.966101 0.287316 27.766500 10.629524 -15.576735 -76.958403 0.000000 0.000000 80.055397 -9.399414 7.039890 20.498794 0.000000 0.000000 -14.508099 5.603310 -6.648378 -61.728497 0.000000 0.000000 97.525200 3.698016 -14.975473 4.600881 0.000000 0.000000 -25.314000 
-17.485062 6.423014 39.072171 -175.698516 -8.572306 162.025185 9.126994 14.221942 -1.065283 -7.775106 -13.683148 7.596877 0.000000 0.000000 0.000000 12.934487 -8.626737 6.384443 -15.700202 5.998967 -83.666442 -27.287701 -5.411180 9.971250 -37.087601 -36.411598 -16.015991 180.000000 -32.134003 -180.000000 14.577900 21.871099 52.850006 33.686100 -0.393452 3.986480 38.271702 31.459101 -7.096930 -180.000000 38.636993 -180.000000 -27.693600 -0.071714 27.727501 10.797339 -15.393121 -76.466543 0.000000 0.000000 83.691299 -9.317967 6.618810 20.491527 0.000000 0.000000 -14.413096 5.787565 -7.805835 -62.569626 0.000000 0.000000 99.323997 1.867356 -15.130602 3.507953 0.000000 0.000000 -24.900890 
-17.488099 6.426680 39.054111 -175.615050 -8.574112 162.414922 9.084489 14.455442 -1.420488 -7.961607 -13.453332 7.278511 0.000000 0.000000 0.000000 13.253520 -8.727232 6.071436 -15.276010 6.236347 -83.651396 -27.252399 -5.439290 10.016100 -37.181900 -36.343201 -15.864990 -180.000000 -32.072998 180.000000 14.801300 21.702999 52.731995 33.782299 -0.502846 3.964610 38.198898 31.406601 -7.074480 -180.000000 38.201004 -180.000000 -27.624399 -1.310170 28.669901 10.656356 -15.019360 -75.774850 0.000000 0.000000 87.511002 -9.176533 6.568928 20.046262 0.000000 0.000000 -14.403411 6.043803 -8.642272 -63.099470 0.000000 0.000000 101.186996 1.598073 -14.783970 2.092191 0.000000 0.000000 -24.579790 
-17.492777 6.432657 39.036903 -175.533266 -8.516949 162.687616 9.074709 14.668573 -1.720069 -8.081646 -13.180692 7.254563 0.000000 0.000000 0.000000 13.654397 -8.979770 5.433050 -14.998401 6.476974 -83.710904 -27.182600 -5.525630 9.976100 -37.377701 -36.267300 -15.731995 -180.000000 -31.919006 180.000000 14.891400 21.591400 52.454010 33.717098 -0.603649 3.895860 38.276299 31.488800 -6.906490 -180.000000 37.964996 -180.000000 -27.576401 -0.879428 28.733400 10.259054 -14.574302 -74.877188 0.000000 0.000000 91.400002 -9.053731 6.714099 19.074657 0.000000 0.000000 -14.260474 6.286560 -9.352489 -63.407424 0.000000 0.000000 103.146004 1.341127 -14.033440 1.001493 0.000000 0.000000 -24.668590 
-17.498921 6.440261 39.020515 -175.472553 -8.502955 162.968364 8.990474 14.785524 -2.063753 -8.105076 -12.949625 7.390365 0.000000 0.000000 0.000000 13.977723 -9.163358 4.679185 -14.813116 6.697664 -83.862514 -27.142700 -5.589190 9.980410 -37.484100 -36.304001 -15.717010 -180.000000 -31.718002 180.000000 15.076400 21.514999 52.388000 33.559200 -0.579164 3.868500 38.348202 31.652100 -6.791820 180.000000 37.632004 180.000000 -27.644600 -1.012000 28.722700 9.753753 -14.216805 -73.984309 0.000000 0.000000 95.268898 -8.940316 6.834266 17.931170 0.000000 0.000000 -13.891660 6.558378 -10.176988 -63.615087 0.000000 0.000000 105.195000 0.321242 -13.409710 -0.445136 0.000000 0.000000 -24.509150 
-17.506427 6.449713 39.007995 -175.405906 -8.434875 163.329625 9.040305 14.940623 -2.336738 -8.259840 -12.745244 7.419533 0.000000 0.000000 0.000000 14.298986 -9.305001 4.058245 -14.707218 6.895029 -84.152613 -27.059900 -5.680920 10.057700 -37.545300 -36.270000 -15.772003 -180.000000 -31.531006 180.000000 15.154400 21.327200 52.363007 33.511002 -0.568614 3.818780 38.346100 31.830000 -6.620360 180.000000 37.309006 -180.000000 -27.762899 -1.458010 28.854200 9.285455 -13.865585 -73.198202 0.000000 0.000000 99.086700 -8.700891 7.032335 16.933424 0.000000 0.000000 -14.176484 6.782677 -10.715540 -63.676147 0.000000 0.000000 107.044998 0.528408 -12.615237 -2.689268 0.000000 0.000000 -23.728970 
-17.513088 6.459150 39.000255 -175.343828 -8.338322 163.674756 9.104505 15.040989 -2.400465 -8.386220 -12.685099 7.257707 0.000000 0.000000 0.000000 14.580583 -9.371892 3.560302 -14.646243 7.132867 -84.343351 -26.972799 -5.631790 9.974990 -37.673199 -36.176102 -15.623993 180.000000 -31.339996 -180.000000 15.235100 21.269400 52.354004 33.484001 -0.525971 3.836250 38.360100 32.034100 -6.434290 -180.000000 37.173996 180.000000 -27.654699 -1.386400 28.857800 8.845729 -13.518210 -72.383395 0.000000 0.000000 102.649002 -9.126616 6.932626 15.280270 0.000000 0.000000 -14.109604 7.000190 -11.179979 -63.631196 0.000000 0.000000 108.775002 0.171695 -11.836189 -3.797661 0.000000 0.000000 -23.765430 
-17.518667 6.469422 38.994813 -175.249967 -8.325154 164.002726 9.095840 15.027753 -2.376210 -8.385161 -12.760310 7.027504 0.000000 0.000000 0.000000 14.851442 -9.394320 3.071745 -14.595232 7.391812 -84.550785 -26.922800 -5.518010 9.939600 -37.723000 -36.167599 -15.507996 -180.000000 -31.147003 180.000000 15.280200 21.296000 52.356995 33.443501 -0.483723 3.894150 38.388100 32.216301 -6.259150 -180.000000 37.145996 180.000000 -27.601101 -1.287950 28.824900 8.452193 -13.255969 -71.550203 0.000000 0.000000 105.915001 -8.906286 6.605392 12.512370 0.000000 0.000000 -13.827310 7.075033 -11.467374 -63.389436 0.000000 0.000000 110.374001 0.753788 -10.232160 -4.619525 0.000000 0.000000 -23.778720 
-17.523605 6.478887 38.992848 -175.204884 -8.406042 164.356341 9.017336 14.981624 -2.273984 -8.362631 -12.883327 6.772334 0.000000 0.000000 0.000000 15.110830 -9.376127 2.612923 -14.467492 7.632048 -84.838614 -26.838699 -5.460240 9.920160 -37.778000 -36.227901 -15.326996 -180.000000 -30.947006 180.000000 15.400000 21.361401 52.289001 33.369598 -0.464594 3.941940 38.438400 32.367901 -6.103230 180.000000 37.100006 180.000000 -27.672199 -1.436110 28.750000 8.104522 -13.165320 -70.832338 0.000000 0.000000 108.890999 -8.873662 6.196423 9.516993 0.000000 0.000000 -13.476590 6.942639 -11.633276 -63.048465 0.000000 0.000000 111.857002 1.463267 -8.012466 -5.222523 0.000000 0.000000 -24.107390 
-17.527052 6.486813 38.993045 -175.156380 -8.534265 164.705302 8.948784 14.935874 -2.026254 -8.360184 -13.074276 6.362671 0.000000 0.000000 0.000000 15.417284 -9.366945 2.251823 -14.245776 7.877907 -85.109711 -26.746300 -5.448390 9.943110 -37.768002 -36.297699 -15.205994 180.000000 -30.772995 -180.000000 15.331900 21.460300 52.222992 33.332001 -0.559971 4.056550 38.491699 32.535900 -5.985960 -180.000000 37.141006 180.000000 -27.736200 -1.196660 28.805901 7.852420 -13.164186 -70.284879 0.000000 0.000000 111.653999 -9.314611 5.727032 6.912138 0.000000 0.000000 -13.339420 6.715668 -11.670937 -62.590047 0.000000 0.000000 113.204002 2.202016 -5.701163 -6.054560 0.000000 0.000000 -24.254030 
-17.533429 6.494013 38.995825 -175.144072 -8.703685 165.034218 9.083250 14.932754 -1.611723 -8.694287 -13.318757 5.898396 0.000000 0.000000 0.000000 15.903373 -9.454162 1.883399 -14.047925 8.232178 -85.289355 -26.539499 -5.404530 10.124600 -37.725700 -36.544498 -15.165985 -180.000000 -30.664993 180.000000 15.208900 21.484301 52.165985 33.375999 -0.712193 4.234280 38.576599 32.672100 -5.998500 180.000000 37.242004 180.000000 -27.436501 -0.405677 28.007401 7.576893 -13.300861 -69.744240 0.000000 0.000000 114.155998 -9.165493 5.444776 3.949648 0.000000 0.000000 -13.153480 6.364970 -11.671672 -62.089586 0.000000 0.000000 114.446999 3.045018 -3.574414 -6.653803 0.000000 0.000000 -24.153270 
-17.536909 6.501248 38.993359 -175.085546 -8.733145 165.235890 9.131538 14.948204 -1.303364 -8.788905 -13.412465 5.749039 0.000000 0.000000 0.000000 16.306950 -9.536168 1.356883 -13.743327 8.573901 -85.303066 -26.365299 -5.495060 10.119300 -37.802399 -36.723598 -15.078003 180.000000 -30.617004 -180.000000 15.108900 21.470400 51.942993 33.302799 -0.787887 4.340000 38.699299 32.757000 -5.978690 -180.000000 37.289993 -180.000000 -27.475201 -0.242135 28.022100 7.394705 -13.298663 -69.116228 0.000000 0.000000 116.521004 -8.079746 5.505403 1.285531 0.000000 0.000000 -12.810730 6.116458 -11.485193 -61.399027 0.000000 0.000000 115.547997 3.458647 -2.209513 -6.866629 0.000000 0.000000 -24.145690 
